<svg width="464" height="505" viewBox="0 0 464 505" fill="none" xmlns="http://www.w3.org/2000/svg">
    <path d="M463.867 494C463.867 502.767 452.474 504.5 443.707 504.5H20.2927C11.5258 504.5 0.132843 502.767 0.132843 494V494C0.132843 485.233 11.5258 483.5 20.2927 483.5H443.707C452.474 483.5 463.867 485.233 463.867 494V494Z" fill="url(#paint0_linear_2_53)"/>
    <path d="M463.867 451.5C463.867 460.267 452.474 462 443.707 462H20.2927C11.5258 462 0.132843 460.267 0.132843 451.5V451.5C0.132843 442.733 11.5258 441 20.2927 441H443.707C452.474 441 463.867 442.733 463.867 451.5V451.5Z" fill="url(#paint1_linear_2_53)"/>
    <path d="M183.424 409.5C183.424 418.299 171.963 420 163.163 420H20.2927C11.5258 420 0.132843 418.267 0.132843 409.5V409.5C0.132843 400.733 11.5258 399 20.2927 399H163.163C171.963 399 183.424 400.7 183.424 409.5V409.5Z" fill="url(#paint2_linear_2_53)"/>
    <path d="M463.424 409.5C463.424 418.299 451.963 420 443.163 420H300.293C291.526 420 280.133 418.267 280.133 409.5V409.5C280.133 400.733 291.526 399 300.293 399H443.163C451.963 399 463.424 400.701 463.424 409.5V409.5Z" fill="url(#paint3_linear_2_53)"/>
    <path d="M183.424 361.5C183.424 370.299 171.963 372 163.163 372H20.2927C11.5258 372 0.132843 370.267 0.132843 361.5V361.5C0.132843 352.733 11.5258 351 20.2927 351H163.163C171.963 351 183.424 352.701 183.424 361.5V361.5Z" fill="url(#paint4_linear_2_53)"/>
    <path d="M463.424 361.5C463.424 370.299 451.963 372 443.163 372H300.293C291.526 372 280.133 370.267 280.133 361.5V361.5C280.133 352.733 291.526 351 300.293 351H443.163C451.963 351 463.424 352.701 463.424 361.5V361.5Z" fill="url(#paint5_linear_2_53)"/>
    <path d="M254 71.5C254 82.8218 244.822 92 233.5 92C222.178 92 213 82.8218 213 71.5C213 60.1782 222.178 51 233.5 51C244.822 51 254 60.1782 254 71.5Z" fill="url(#paint6_linear_2_53)"/>
    <path d="M152.5 206.371L193.407 236.706C195.353 238.149 196.5 240.428 196.5 242.851C196.5 247.075 193.075 250.5 188.851 250.5H187.884C186.036 250.5 184.236 249.906 182.752 248.805L152.5 226.371V229.5C152.5 229.5 151.29 259.385 174 279C198.44 303.023 195.5 341.5 195.5 341.5L210.508 366.791C218.395 380.082 223.094 395.022 224.236 410.435L226.5 441H239.5L241.095 412.291C242.017 395.692 247.063 379.586 255.775 365.428L270.5 341.5C270.5 341.5 267.27 303.038 291.5 279C314.03 259.397 312.5 229.5 312.5 229.5V222.5L281.748 245.305C280.264 246.406 278.464 247 276.616 247H275.649C271.425 247 268 243.575 268 239.351C268 236.928 269.147 234.649 271.093 233.206L312.5 202.5V164.5L242.5 215.5V353.5L232.5 366.5L222.5 353.5V110C208.5 103 195.033 90.143 195.5 71.7158C196.03 50.8088 211.586 33 232.5 33C253.414 33 268.97 50.8088 269.5 71.7158C269.967 90.143 256.5 103 242.5 110V150L270.3 129.15C271.728 128.079 273.465 127.5 275.25 127.5H276.131C280.201 127.5 283.5 130.799 283.5 134.869C283.5 137.158 282.436 139.317 280.621 140.712L242.5 170V195.5L312.5 144.5V79C312.5 35.2295 276.271 0.5 232.5 0.5C188.729 0.5 152.5 35.2295 152.5 79V149.371L193.407 179.706C195.353 181.149 196.5 183.428 196.5 185.851C196.5 190.075 193.075 193.5 188.851 193.5H187.884C186.036 193.5 184.236 192.906 182.752 191.805L152.5 169.371V206.371Z" fill="url(#paint7_linear_2_53)"/>
    <defs>
        <linearGradient id="paint0_linear_2_53" x1="464" y1="505" x2="203" y2="-2.74044e-06" gradientUnits="userSpaceOnUse">
            <stop stop-color="#CA58FF"/>
            <stop offset="1" stop-color="#45A6FF"/>
        </linearGradient>
        <linearGradient id="paint1_linear_2_53" x1="464" y1="505" x2="203" y2="-2.74044e-06" gradientUnits="userSpaceOnUse">
            <stop stop-color="#CA58FF"/>
            <stop offset="1" stop-color="#45A6FF"/>
        </linearGradient>
        <linearGradient id="paint2_linear_2_53" x1="464" y1="505" x2="203" y2="-2.74044e-06" gradientUnits="userSpaceOnUse">
            <stop stop-color="#CA58FF"/>
            <stop offset="1" stop-color="#45A6FF"/>
        </linearGradient>
        <linearGradient id="paint3_linear_2_53" x1="464" y1="505" x2="203" y2="-2.74044e-06" gradientUnits="userSpaceOnUse">
            <stop stop-color="#CA58FF"/>
            <stop offset="1" stop-color="#45A6FF"/>
        </linearGradient>
        <linearGradient id="paint4_linear_2_53" x1="464" y1="505" x2="203" y2="-2.74044e-06" gradientUnits="userSpaceOnUse">
            <stop stop-color="#CA58FF"/>
            <stop offset="1" stop-color="#45A6FF"/>
        </linearGradient>
        <linearGradient id="paint5_linear_2_53" x1="464" y1="505" x2="203" y2="-2.74044e-06" gradientUnits="userSpaceOnUse">
            <stop stop-color="#CA58FF"/>
            <stop offset="1" stop-color="#45A6FF"/>
        </linearGradient>
        <linearGradient id="paint6_linear_2_53" x1="191.5" y1="1.6136e-07" x2="232" y2="431" gradientUnits="userSpaceOnUse">
            <stop stop-color="#FFE600"/>
            <stop offset="1" stop-color="#FFA800"/>
        </linearGradient>
        <linearGradient id="paint7_linear_2_53" x1="191.5" y1="1.6136e-07" x2="232" y2="431" gradientUnits="userSpaceOnUse">
            <stop stop-color="#FFE600"/>
            <stop offset="1" stop-color="#FFA800"/>
        </linearGradient>
    </defs>
</svg>
